<svg xmlns="http://www.w3.org/2000/svg" viewBox="0 0 64 64">
  <defs>
    <linearGradient id="bg" x1="8" y1="5" x2="56" y2="59" gradientUnits="userSpaceOnUse">
      <stop stop-color="#2f7de1"/>
      <stop offset="1" stop-color="#0f3d91"/>
    </linearGradient>
  </defs>
  <rect x="2" y="2" width="60" height="60" rx="17" fill="url(#bg)"/>
  <path d="M19 12h20l9 9v31H19z" fill="#fff"/>
  <path d="M39 12v10h9" fill="#dcecff"/>
  <path d="M39 12v10h9" fill="none" stroke="#9fc4ef" stroke-width="2" stroke-linejoin="round"/>
  <path d="M25 25h12.5a7.5 7.5 0 0 1 0 15H30v7h-5V25Zm5 5v5h7.2a2.5 2.5 0 0 0 0-5z" fill="#1556a8"/>
  <path d="M22 37h17M22 43h13" fill="none" stroke="#1556a8" stroke-width="4" stroke-linecap="round"/>
  <circle cx="47" cy="47" r="11" fill="#0aa76d" stroke="#fff" stroke-width="2"/>
  <path d="m42 47 3.2 3.2 6.2-7" fill="none" stroke="#fff" stroke-width="3" stroke-linecap="round" stroke-linejoin="round"/>
</svg>
